<svg xmlns="http://www.w3.org/2000/svg" width="50" height="50" viewBox="0 0 50 50"><path fill="#FFF" d="M31.543 37.725l-1.998-5.668h-9.3l-1.997 5.668h-5.45l9.737-25.428h4.94l9.66 25.428h-5.592zm-5.376-15.112c-.51-1.49-1.017-3.015-1.272-3.96-.254.945-.762 2.47-1.27 3.96l-1.636 4.614h5.81l-1.634-4.614zm-14.42 3.1c-.12.357-.506.55-.863.43l-7.09-2.38c-.357-.12-.55-.504-.43-.86l.59-1.758c.12-.356.506-.548.862-.428l7.09 2.38c.358.12.55.505.43.862l-.59 1.753zm-.387 5.567c.12.355-.074.743-.43.862l-5.052 1.793c-.357.12-.743-.072-.862-.43l-.588-1.758c-.12-.355.073-.743.43-.862l5.05-1.793c.357-.118.743.073.863.43l.59 1.76zM9.97 15.066c-.298.23-.353.658-.123.956l3.2 4.3c.23.296.658.35.956.12l1.466-1.132c.295-.23.35-.658.12-.956l-3.2-4.3c-.23-.297-.658-.352-.956-.122L9.97 15.066zm28.17 10.648c.12.356.505.548.86.43l7.093-2.38c.356-.12.548-.505.43-.862l-.59-1.757c-.12-.356-.507-.548-.862-.428l-7.09 2.38c-.354.12-.55.505-.43.862l.59 1.753zm.385 5.566c-.12.355.074.743.43.862l5.052 1.793c.356.12.743-.072.862-.43l.586-1.758c.12-.355-.073-.743-.43-.862l-5.05-1.793c-.358-.118-.745.073-.864.43l-.588 1.76zm1.39-16.214c.298.23.355.658.123.956l-3.2 4.3c-.23.296-.658.35-.956.12l-1.466-1.132c-.298-.23-.354-.658-.122-.956l3.2-4.3c.23-.297.658-.352.956-.122l1.466 1.134z"/></svg>